<?xml version="1.0" encoding="utf-8"?>
<!-- Generator: Adobe Illustrator 19.0.0, SVG Export Plug-In . SVG Version: 6.00 Build 0)  -->
<svg version="1.1" id="icon" xmlns="http://www.w3.org/2000/svg" xmlns:xlink="http://www.w3.org/1999/xlink" x="0px" y="0px"
	 viewBox="-159.6 200.9 1167.9 356.3" style="enable-background:new -159.6 200.9 1167.9 356.3;" xml:space="preserve">
<style type="text/css">
	.st0{fill:url(#XMLID_2_);}
	.st1{fill:url(#XMLID_4_);}
	.st2{fill:url(#XMLID_5_);}
	.st3{fill:url(#XMLID_6_);}
	.st4{fill:url(#XMLID_7_);}
	.st5{fill:url(#XMLID_8_);}
	.st6{fill:url(#XMLID_9_);}
	.st7{fill:#FFFFFF;}
	.st8{fill:#20AF59;}
</style>
<g id="Layer_2">
</g>
<linearGradient id="XMLID_2_" gradientUnits="userSpaceOnUse" x1="-84.7" y1="323.5649" x2="39.5" y2="323.5649" gradientTransform="matrix(1 0 0 1 0 -44)">
	<stop  offset="0" style="stop-color:#39B54A"/>
	<stop  offset="1" style="stop-color:#009245"/>
</linearGradient>
<path id="XMLID_80_" class="st0" d="M39.5,264.9l-53.3-21.4c-11.3-4.5-24.3,0.2-30.1,10.9L-71,304.9c-2.7,5-8.3,7.5-13.7,6
	C-13.7,339.5,39.5,264.9,39.5,264.9z"/>
<linearGradient id="XMLID_4_" gradientUnits="userSpaceOnUse" x1="-159.592" y1="382.9166" x2="-49.1191" y2="382.9166" gradientTransform="matrix(1 0 0 1 0 -44)">
	<stop  offset="0" style="stop-color:#39B54A"/>
	<stop  offset="1" style="stop-color:#009245"/>
</linearGradient>
<path id="XMLID_77_" class="st1" d="M-86.6,310.2l-3.4-1.6c-6-2.8-10.2-8.1-12.7-14.2c-4.8-12-18.3-18.1-30.5-13.6l-10.7,3.9
	c-12.4,4.4-18.8,18.2-14.2,30.7l3.8,10.5c4.5,12.3,18.1,19.5,30.3,14.7c6.1-2.4,13-2.2,18.9,0.6l3.4,1.6c5.8,2.7,8.4,9.4,6.1,15.3
	l-11.7,29.2C-68.1,428.7-10.1,345.8-86.6,310.2z"/>
<linearGradient id="XMLID_5_" gradientUnits="userSpaceOnUse" x1="154" y1="447.3619" x2="-68.8" y2="447.3619" gradientTransform="matrix(1 0 0 1 0 -44)">
	<stop  offset="0" style="stop-color:#39B54A"/>
	<stop  offset="1" style="stop-color:#009245"/>
</linearGradient>
<path id="XMLID_78_" class="st2" d="M-68.8,461.4l13.3,7.1c92,49.2,74.1-144.5,195.9-87.6l13.6-34.2
	C-21.8,266.8,14.1,505.9-68.8,461.4z"/>
<linearGradient id="XMLID_6_" gradientUnits="userSpaceOnUse" x1="-81.3812" y1="507.7017" x2="140.4" y2="507.7017" gradientTransform="matrix(1 0 0 1 0 -44)">
	<stop  offset="0" style="stop-color:#39B54A"/>
	<stop  offset="1" style="stop-color:#009245"/>
</linearGradient>
<path id="XMLID_76_" class="st3" d="M138.8,415.3c-5.8-2.7-8.4-9.4-6.1-15.3l7.7-19.1C18.6,324,35.7,517.3-55.5,468.5
	c5.6,3,7.7,9.9,5,15.6l-1.6,3.4c-2.8,6-8.1,10.2-14.2,12.7c-12,4.8-18.1,18.3-13.6,30.5l3.9,10.7c4.5,12.5,18.3,18.9,30.8,14.3
	l10.6-3.8c12.3-4.5,19.5-18.1,14.7-30.3c-2.4-6.1-2.2-13,0.6-18.9l1.6-3.4c2.7-5.8,9.4-8.4,15.3-6.1l53.2,21.3
	C-2.4,493.3,70.1,383.2,138.8,415.3z"/>
<linearGradient id="XMLID_7_" gradientUnits="userSpaceOnUse" x1="196.6398" y1="506.8388" x2="32.426" y2="506.8388" gradientTransform="matrix(1 0 0 1 0 -44)">
	<stop  offset="0" style="stop-color:#39B54A"/>
	<stop  offset="1" style="stop-color:#009245"/>
</linearGradient>
<path id="XMLID_82_" class="st4" d="M195.2,442.7l-3.8-10.5c-4.5-12.3-18.1-19.5-30.3-14.7c-6.1,2.4-13,2.2-18.9-0.6l-3.4-1.6
	c-68.7-32.1-141.2,78-88,99.3c11.4,4.5,24.3-0.2,30.1-10.9l27.1-50.5c3-5.6,9.9-7.9,15.6-5.2l3.4,1.6c6,2.8,10.2,8.1,12.7,14.2
	c4.8,12,18.3,18.1,30.5,13.6l10.7-3.9C193.3,468.9,199.7,455,195.2,442.7z"/>
<linearGradient id="XMLID_8_" gradientUnits="userSpaceOnUse" x1="-106.1" y1="423.579" x2="155.7583" y2="423.579" gradientTransform="matrix(1 0 0 1 0 -44)">
	<stop  offset="0" style="stop-color:#39B54A"/>
	<stop  offset="1" style="stop-color:#009245"/>
</linearGradient>
<path id="XMLID_84_" class="st5" d="M143.1,316.7C-59.9,208,3.3,500-106.1,441.4l37.3,20C14.6,506.1-21.7,266.8,154,346.7
	C158.6,335.4,153.9,322.4,143.1,316.7z"/>
<linearGradient id="XMLID_9_" gradientUnits="userSpaceOnUse" x1="143.1" y1="369.0819" x2="-118.6009" y2="369.0819" gradientTransform="matrix(1 0 0 1 0 -44)">
	<stop  offset="0" style="stop-color:#39B54A"/>
	<stop  offset="1" style="stop-color:#009245"/>
</linearGradient>
<path id="XMLID_81_" class="st6" d="M143.1,316.7l-50.5-27.1c-5.6-3-7.9-9.9-5.2-15.6l1.6-3.4c2.8-6,8.1-10.2,14.2-12.7
	c12-4.8,18.1-18.3,13.6-30.5l-3.9-10.7c-4.5-12.5-18.2-18.9-30.7-14.3l-10.5,3.8c-12.3,4.5-19.5,18.1-14.7,30.3
	c2.4,6.1,2.2,13-0.6,18.9l-1.6,3.4c-2.7,5.8-9.4,8.4-15.3,6.1c-52-20.8-53.3,74.6-124.2,46c-0.6-0.2-1.3-0.4-1.9-0.7
	c76.5,35.7,18.2,117.9-20.7,77.1l-9.6,24.1c-4.5,11.3,0.2,24.3,10.9,30.1C3.3,500-58.3,209,143.1,316.7z"/>
<g id="XMLID_3_">
	<path id="XMLID_60_" class="st7" d="M95.6,365.4l2.7-20c1.7-12.6-11-22.1-22.6-17l-11.6,5.2c-10.4,4.7-18.7,13.1-23.1,23.7
		l-12,28.6c-1.3,3-0.3,6.5,2.4,8.4l20.8,14.6c2.5,1.8,5.9,1.7,8.3-0.2l18-13.8C87.8,387.7,94,377,95.6,365.4z"/>
	<path id="XMLID_59_" class="st7" d="M15,442.5l-3.3-2.3c-6.5-4.5-8.4-13.3-4.5-20.1l6.8-11.7c2.1-3.6,6.7-4.6,10.1-2.2l18.6,13
		c3.3,2.3,4,7,1.4,10.2l-8.6,10.4C30.5,445.9,21.5,447,15,442.5z"/>
	<path id="XMLID_56_" class="st7" d="M-31.1,326.8l13.5-14.9c8.5-9.4,24-5.8,27.5,6.4l3.5,12.2c3.2,11,2,22.8-3.3,32.9l-14.2,27.5
		c-1.5,2.9-4.9,4.4-8,3.6l-24.5-6.6c-3-0.8-5-3.4-5.2-6.5l-1-22.6C-43.2,347-39.1,335.5-31.1,326.8z"/>
	<path id="XMLID_55_" class="st7" d="M-38.5,438.2l3.9,1c7.6,2,15.6-2.1,18.3-9.5l4.6-12.7c1.4-3.9-0.8-8.1-4.8-9.1l-21.9-5.9
		c-3.9-1.1-8,1.5-8.7,5.5l-2.4,13.2C-51,428.5-46.1,436-38.5,438.2z"/>
</g>
<g>
	<path class="st8" d="M288.3,362.2c2.7,0,5.1-1,7-2.9c1.9-1.9,2.9-4.3,2.9-7v-23h41v28c0,9.3,2.4,17.2,7.1,23.6
		c4.9,6.6,12.5,9.9,22.6,9.9c3.5,0,6.4-1,8.5-3.1l0,0c2.1-2.1,3.2-4.6,3.2-7.6c0-2.9-1-5.4-3-7.4c-2-2-4.5-3-7.6-3
		c-4.8,0-11.2-1.5-11.2-14.6v-62.3c0-7.8-1.1-14.1-3.3-18.9c-3.1-7.2-8-13-14.6-17.2c-6.5-4.2-14-6.3-22.4-6.3
		c-8.4,0-15.9,2.1-22.3,6.3c-6.5,4.2-11.4,10-14.6,17.2c-2.2,4.8-3.3,11.2-3.3,19v59.5c0,2.7,0.9,5.1,2.8,7
		C283.2,361.2,285.5,362.2,288.3,362.2z M298.3,310.2v-18.3c0-5.3,0.7-9.3,2-12c1.5-3,4-5.6,7.2-7.7c3.3-2,7-3.1,11.2-3.1
		s8,1,11.2,3.1c3.3,2,5.7,4.6,7.2,7.7c1.4,2.7,2,6.7,2,12v18.3H298.3z"/>
	<path class="st8" d="M372.3,271.3c1.9,0,3.5,0.7,4.7,2.1c1.3,1.5,2,3.7,2,6.5v7.8h-2.5c-2.5,0-4.7,0.9-6.4,2.6
		c-1.7,1.7-2.6,3.9-2.6,6.4c0,2.5,0.9,4.7,2.6,6.5c1.7,1.8,3.9,2.7,6.5,2.7h2.5v30.3c0,6.9,2.4,13,7,18.1c4.7,5.2,10.9,7.9,18.4,7.9
		c3,0,5.5-0.9,7.3-2.7c1.8-1.8,2.8-4,2.8-6.5c0-2.5-0.8-4.7-2.5-6.4c-1.7-1.8-3.9-2.6-6.5-2.6c-2.2,0-3.9-0.9-5.2-2.6
		c-1.5-1.9-2.2-4.3-2.2-7.4v-28h7.3c2.5,0,4.7-0.9,6.5-2.7c1.8-1.8,2.7-4,2.7-6.5c0-2.6-0.9-4.7-2.7-6.5c-1.8-1.7-4-2.6-6.5-2.6H398
		v-10c0-4.4-0.7-8.6-2-12.4c-1.4-4-4-7.6-7.9-10.5c-3.9-3-8.8-4.5-14.6-4.5c-3.5,0-6.4,1-8.5,3.1c-2.1,2.1-3.2,4.6-3.2,7.6
		c0,2.9,1,5.4,3,7.4C366.7,270.3,369.3,271.3,372.3,271.3z"/>
	<path class="st8" d="M444.1,362.2c3.2,0,5.8-0.9,7.6-2.5c1.9-1.7,2.9-4,2.9-6.7c0-2.5-0.8-4.7-2.5-6.4c-1.7-1.8-3.9-2.6-6.5-2.6
		c-0.7,0-1.1,0-1.1-1.5v-64.8c0-4.4-0.7-8.6-2-12.4c-1.4-4-4-7.6-7.9-10.5c-3.9-3-8.8-4.5-14.6-4.5c-3.5,0-6.4,1-8.5,3.1
		c-2.1,2.1-3.2,4.6-3.2,7.6c0,2.9,1,5.4,3,7.4s4.5,3,7.6,3c1.9,0,3.5,0.7,4.7,2.1c1.3,1.5,2,3.7,2,6.5v60.8
		C425.5,358.5,435.6,362.2,444.1,362.2z"/>
	<path class="st8" d="M484.5,362.2c4.9,0,9-1,12.2-2.8c1.8-1.1,3.2-2.3,4.3-3.7c0.4,1.4,1.2,2.6,2.3,3.7c1.8,1.8,4.1,2.8,6.7,2.8
		c2.6,0,4.9-0.9,6.7-2.8c1.8-1.8,2.8-4.1,2.8-6.7v-57c0-2.6-0.9-4.9-2.8-6.7c-1.8-1.8-4.1-2.8-6.7-2.8c-2.6,0-4.9,0.9-6.7,2.8
		c-0.8,0.8-1.5,1.8-1.9,2.8c-2.5-3.7-7.3-5.5-14.3-5.5c-5.8,0-10.8,1.4-15.1,4.2c-4.2,2.8-7.4,6.5-9.4,11c-1.7,3.7-2.6,8.4-2.6,14.1
		v20.7c0,6.7,2.1,12.8,6.3,18C470.6,359.5,476.7,362.2,484.5,362.2z M479,333.9v-17.7c0-8.1,3.8-11.8,12.1-11.8
		c3.8,0,6.9,1.1,9.4,3.4v31.8c-2.1,2.9-5.9,4.3-11.5,4.3c-3.5,0-5.9-0.8-7.5-2.6C479.8,339.6,479,337.2,479,333.9z"/>
	<path class="st8" d="M543,362.2c2.6,0,4.9-0.9,6.7-2.8c1.8-1.8,2.8-4.1,2.8-6.7v-37.5c0-3.4,1-5.9,2.9-7.9c2-1.9,4.5-2.9,7.8-2.9
		c3.3,0,5.8,0.9,7.8,2.9c2,1.9,2.9,4.5,2.9,7.9v42c0,9.4,2.3,17.3,6.8,23.7c4.7,6.5,12.1,9.8,22.2,9.8c3.5,0,6.4-1,8.5-3.1
		c2.1-2.1,3.2-4.6,3.2-7.6c0-2.9-1-5.4-3-7.4c-2-2-4.5-3-7.6-3c-4.8,0-11.2-1.5-11.2-14.6v-37.5c0-5.1-0.8-9.6-2.3-13.4
		c-2.2-5.3-5.8-9.7-10.7-13c-4.9-3.3-10.5-4.9-16.8-4.9c-6.3,0-11.9,1.7-16.8,4.9c-4.9,3.3-8.5,7.6-10.7,13
		c-1.5,3.7-2.2,8.2-2.2,13.3v35.3c0,2.6,0.9,4.9,2.8,6.7C538.1,361.3,540.4,362.2,543,362.2z"/>
	<path class="st8" d="M606.3,271.3c1.9,0,3.5,0.7,4.7,2.1c1.3,1.5,2,3.7,2,6.5v7.8h-2.5c-2.5,0-4.7,0.9-6.4,2.6
		c-1.7,1.7-2.6,3.9-2.6,6.4c0,2.5,0.9,4.7,2.6,6.5c1.7,1.8,3.9,2.7,6.5,2.7h2.5v30.3c0,6.9,2.4,13,7,18.1c4.7,5.2,10.9,7.9,18.4,7.9
		c3,0,5.5-0.9,7.3-2.7c1.8-1.8,2.8-4,2.8-6.5c0-2.5-0.8-4.7-2.5-6.4c-1.7-1.8-3.9-2.6-6.5-2.6c-2.2,0-3.9-0.9-5.2-2.6
		c-1.5-1.9-2.2-4.3-2.2-7.4v-28h7.3c2.5,0,4.7-0.9,6.5-2.7s2.7-4,2.7-6.5c0-2.6-0.9-4.7-2.7-6.5c-1.8-1.7-4-2.6-6.5-2.6H632v-10
		c0-4.4-0.7-8.6-2-12.4c-1.4-4-4-7.5-7.9-10.5c-3.9-3-8.8-4.5-14.6-4.5c-3.5,0-6.4,1-8.5,3.1c-2.1,2.1-3.2,4.6-3.2,7.6
		c0,2.9,1,5.4,3,7.4C600.7,270.3,603.3,271.3,606.3,271.3z"/>
	<path class="st8" d="M706.5,362.2c2.6,0,4.9-0.9,6.7-2.8c1.8-1.8,2.8-4.1,2.8-6.7v-57c0-2.6-0.9-4.9-2.8-6.7
		c-1.8-1.8-4.1-2.8-6.7-2.8c-2.6,0-4.9,0.9-6.7,2.8c-0.8,0.8-1.5,1.8-1.9,2.8c-2.5-3.7-7.3-5.5-14.3-5.5c-5.8,0-10.8,1.4-15.1,4.2
		c-4.2,2.8-7.4,6.5-9.4,11c-1.7,3.7-2.6,8.4-2.6,14.1v20.7c0,6.7,2.1,12.8,6.3,18c4.3,5.3,10.4,8,18.2,8c4.9,0,9-1,12.2-2.8
		c1.8-1.1,3.2-2.3,4.3-3.7c0.4,1.4,1.2,2.6,2.3,3.7C701.6,361.3,703.9,362.2,706.5,362.2z M697,307.8v31.8
		c-2.1,2.9-5.9,4.3-11.5,4.3c-3.5,0-5.9-0.8-7.5-2.6c-1.7-1.8-2.5-4.2-2.5-7.4v-17.7c0-8.1,3.8-11.8,12.1-11.8
		C691.4,304.4,694.5,305.5,697,307.8z"/>
	<path class="st8" d="M339.2,401.4L339.2,401.4c-7.1-6.5-15.7-9.7-25.4-9.7h-25.5c-2.9,0-5.3,1-7.1,3c-1.8,1.9-2.7,4.3-2.7,7v90.6
		c0,2.7,0.9,5.1,2.8,7c1.9,1.9,4.2,2.9,7,2.9c2.7,0,5.1-1,7-2.9c1.9-1.9,2.9-4.3,2.9-7v-31.3h15.5c9.9,0,18.4-3.2,25.5-9.5
		c7.1-6.4,10.7-14.8,10.7-25C350,416.4,346.4,408,339.2,401.4z M330.3,426.4c0,5-1.4,8.7-4.2,11.5h0c-2.8,2.8-6.4,4.1-10.8,4.1h-17
		v-31.3h17c4.3,0,7.8,1.4,10.7,4.2C328.9,417.8,330.3,421.5,330.3,426.4z"/>
	<path class="st8" d="M408,426.2c-2.6,0-4.9,0.9-6.7,2.8c-1.8,1.8-2.8,4.1-2.8,6.7v37.5c0,3.4-1,5.9-2.9,7.9c-2,1.9-4.5,2.9-7.8,2.9
		c-3.3,0-5.8-0.9-7.8-2.9c-2-1.9-2.9-4.5-2.9-7.9v-37.5c0-2.6-0.9-4.9-2.8-6.7c-1.8-1.8-4.1-2.8-6.7-2.8c-2.6,0-4.9,0.9-6.7,2.8
		c-1.8,1.8-2.8,4.1-2.8,6.7v35.3c0,5.1,0.8,9.6,2.3,13.4c2.2,5.3,5.8,9.7,10.7,13c4.9,3.3,10.5,4.9,16.8,4.9
		c6.3,0,11.9-1.7,16.8-4.9c4.9-3.3,8.5-7.6,10.7-13c1.5-3.7,2.2-8.2,2.2-13.3v-35.3c0-2.6-0.9-4.9-2.8-6.7
		C412.9,427.1,410.6,426.2,408,426.2z"/>
	<path class="st8" d="M527.2,513c-2.6,0-4.7,0.7-6.4,2c-0.6,0.4-1.3,1.1-2.6,2.7c-1.2,1.3-2.4,2.3-3.6,2.8c-1.2,0.5-2.9,0.8-5,0.8
		c-2.2,0-5.3-1.4-8.8-4.2c-4-3-12.7-11.4-16.2-14.9c-3.6-3.7-13-12.3-18.2-15.7c-4-2.6-8-4.3-11.7-5.2l27.9-37.7
		c2.4-3.3,3.5-6.1,3.5-8.7c0-2.4-0.8-4.5-2.4-6.2c-1.6-1.7-3.8-2.6-6.3-2.6c-2.1,0-4.1,0.6-5.7,1.9l-0.1,0.1
		c-1.8,1.5-3.4,2.4-4.5,2.4c-2.5,0-5.8-0.7-9.8-2.1c-4.4-1.5-8.5-2.3-12.1-2.3c-4.5,0-8.6,1.3-12.1,3.8c-3.7,2.7-5.6,6-5.6,9.7
		c0,2.6,0.9,4.9,2.7,6.7c1.8,1.8,3.9,2.8,6.2,2.8c2.7,0,4.9-0.7,6.6-2.1c2.3-2,3.7-2.4,4.5-2.4c2,0,4.4,0.4,7.2,1.3
		c1.2,0.3,2.1,0.6,2.9,0.8l-28.1,37.9c-2.4,3.3-3.5,6.1-3.5,8.7c0,2.4,0.9,4.5,2.5,6.2c1.7,1.7,3.8,2.5,6.2,2.5
		c2.1,0,4.1-0.6,5.7-1.9l0.1-0.1c1.8-1.6,3.6-2.4,5.3-2.4c2.5,0,5.4,1,8.5,3c3.3,2,11.4,9.3,14.8,12.5l0.3,0.3
		c1.3,1.2,3.3,3,5.5,5.1c3.7,3.4,7.9,7.3,10.2,9.3c3.8,3.2,8.1,6,12.6,8.3c4.7,2.3,9.5,3.5,14.2,3.5c7.2,0,13.1-1.8,17.5-5.4
		c4.5-3.7,6.7-7.7,6.7-11.9c0-2.7-0.9-5-2.6-6.8C531.8,513.9,529.7,513,527.2,513z"/>
	<path class="st8" d="M591.4,513c-2.6,0-4.7,0.7-6.4,2c-0.6,0.4-1.3,1.1-2.6,2.7c-1.2,1.3-2.4,2.3-3.6,2.8c-1.2,0.5-2.9,0.8-5,0.8
		c-2.2,0-5.3-1.4-8.8-4.2c-4-3-12.7-11.4-16.2-14.9c-3.6-3.7-13-12.3-18.2-15.7c-4-2.6-8-4.3-11.7-5.2l27.9-37.7
		c2.4-3.3,3.5-6.1,3.5-8.7c0-2.4-0.8-4.5-2.4-6.2c-1.6-1.7-3.8-2.6-6.3-2.6c-2.1,0-4.1,0.6-5.7,1.9l-0.1,0.1
		c-1.8,1.5-3.4,2.4-4.5,2.4c-2.5,0-5.8-0.7-9.8-2.1c-4.4-1.5-8.5-2.3-12.1-2.3c-4.5,0-8.6,1.3-12.1,3.8c-3.7,2.7-5.6,6-5.6,9.7
		c0,2.6,0.9,4.9,2.7,6.7c1.8,1.8,3.9,2.8,6.2,2.8c2.7,0,4.9-0.7,6.6-2.1c2.3-2,3.7-2.4,4.5-2.4c2,0,4.4,0.4,7.2,1.3
		c1.2,0.3,2.1,0.6,2.9,0.8l-28.1,37.9c-2.4,3.3-3.5,6.1-3.5,8.7c0,2.4,0.9,4.5,2.5,6.2c1.7,1.7,3.8,2.5,6.2,2.5
		c2.1,0,4.1-0.6,5.7-1.9l0.1-0.1c1.8-1.6,3.6-2.4,5.3-2.4c2.5,0,5.4,1,8.5,3c3.3,2,11.4,9.3,14.8,12.5l0.3,0.3
		c1.3,1.2,3.3,3,5.5,5.1c3.7,3.4,7.9,7.3,10.2,9.3c3.8,3.2,8.1,6,12.6,8.3c4.7,2.3,9.5,3.5,14.2,3.5c7.2,0,13.1-1.8,17.5-5.4
		c4.5-3.7,6.7-7.7,6.7-11.9c0-2.7-0.9-5-2.6-6.8C596,513.9,593.9,513,591.4,513z"/>
	<path class="st8" d="M580,502.2c3.2,0,5.8-0.9,7.6-2.5c1.9-1.7,2.9-4,2.9-6.7c0-2.5-0.8-4.7-2.5-6.4c-1.7-1.8-3.9-2.6-6.5-2.6
		c-0.7,0-1.2,0-1.2-1.5v-64.8c0-4.4-0.7-8.6-2-12.4c-1.4-4-4-7.5-7.9-10.5c-3.9-3-8.8-4.5-14.6-4.5c-3.5,0-6.4,1-8.5,3.1
		c-2.1,2.1-3.2,4.6-3.2,7.6c0,2.9,1,5.4,3,7.4s4.5,3,7.6,3c1.9,0,3.5,0.7,4.7,2.1c1.3,1.5,2,3.7,2,6.5v60.8
		C561.4,498.5,571.5,502.2,580,502.2z"/>
	<path class="st8" d="M640.7,431.1L640.7,431.1c-4.6-3.2-10.1-4.9-16.3-4.9c-6.2,0-11.6,1.6-16.2,4.9c-4.5,3.2-7.9,7.6-10.1,13
		c-1.5,3.7-2.2,8.2-2.2,13.3v13.5c0,5.1,0.8,9.6,2.3,13.4c2.2,5.5,5.9,9.9,10.9,13.1c5,3.2,11,4.8,18.1,4.8c8.3,0,15-2.3,19.9-6.8
		c2.1-1.9,3.2-4.4,3.2-7.3c0-2.3-0.9-4.4-2.6-6.2c-1.7-1.8-3.9-2.7-6.5-2.7c-2.5,0-4.7,0.8-6.6,2.4c-1.8,1.6-4.3,2.4-7.5,2.4
		c-3.8,0-6.8-1-9-2.9c-2.2-1.9-3.2-4.5-3.2-7.8v-0.1h29c2.5,0,4.7-0.9,6.5-2.6c1.8-1.7,2.7-3.9,2.7-6.5v-6.6c0-5.4-0.7-9.9-2.1-13.4
		C648.8,438.7,645.3,434.3,640.7,431.1z M614.9,454.7c0-3.4,0.8-5.9,2.5-7.7c1.6-1.7,3.9-2.6,7.1-2.6c3.2,0,5.5,0.9,7.2,2.6
		c1.7,1.8,2.5,4.3,2.5,7.7v0.1h-19.3V454.7z"/>
	<path class="st8" d="M782.3,399.7c0-2.8-1-5.1-2.9-6.9c-1.9-1.8-4.2-2.6-6.9-2.6c-2.4,0-4.4,0.7-6.2,2.1c-2.3,1.8-4.5,2.7-6.8,2.7
		c-3.5,0-9.6-0.8-18.2-2.4c-8.9-1.6-16.3-2.4-22-2.4c-5.9,0-10.9,1.4-15,4.1c-4.4,2.9-6.6,6.5-6.6,10.7c0,2.8,1,5.1,2.9,6.9
		c1.9,1.8,4.2,2.6,6.9,2.6c2.4,0,4.4-0.7,6.2-2.1c2.8-2.2,4.4-2.7,5.3-2.7c2.7,0,6.4,0.4,10.9,1.1v81.5c0,2.7,1,5.1,2.9,7
		c1.9,1.9,4.3,2.9,7,2.9c2.8,0,5.1-1,7-2.9c1.9-1.9,2.8-4.3,2.8-7v-78.4c3.5,0.4,7.5,0.6,12,0.6c5.7,0,10.6-1.4,14.5-4.3
		C780.2,407.2,782.3,403.7,782.3,399.7z"/>
	<path class="st8" d="M816.4,431.1L816.4,431.1c-4.9-3.3-10.5-4.9-16.8-4.9c-6.3,0-11.9,1.7-16.8,4.9c-4.9,3.3-8.5,7.6-10.7,13
		c-1.5,3.7-2.2,8.2-2.2,13.3v13.5c0,5.1,0.8,9.6,2.3,13.4c2.2,5.3,5.8,9.7,10.7,13c4.9,3.3,10.5,4.9,16.8,4.9
		c6.3,0,11.9-1.7,16.8-4.9c4.9-3.3,8.5-7.6,10.7-13c1.5-3.7,2.2-8.2,2.2-13.3v-13.5c0-5.1-0.8-9.6-2.3-13.4
		C824.9,438.7,821.3,434.4,816.4,431.1z M810.4,455.2v18c0,3.4-1,5.9-2.9,7.9c-2,1.9-4.5,2.9-7.8,2.9c-3.3,0-5.8-0.9-7.8-2.9
		c-2-1.9-2.9-4.5-2.9-7.9v-18c0-3.4,1-5.9,2.9-7.9c2-1.9,4.5-2.9,7.8-2.9c3.3,0,5.8,0.9,7.8,2.9
		C809.4,449.3,810.4,451.8,810.4,455.2z"/>
	<path class="st8" d="M891.9,426.2c-2.6,0-4.9,0.9-6.7,2.8c-1.8,1.8-2.8,4.1-2.8,6.7v37.5c0,3.4-1,5.9-2.9,7.9
		c-2,1.9-4.5,2.9-7.8,2.9c-3.3,0-5.8-0.9-7.8-2.9c-2-1.9-2.9-4.5-2.9-7.9v-37.5c0-2.6-0.9-4.9-2.8-6.7c-1.8-1.8-4.1-2.8-6.7-2.8
		c-2.6,0-4.9,0.9-6.7,2.8c-1.8,1.8-2.8,4.1-2.8,6.7v35.3c0,5.1,0.8,9.6,2.3,13.4c2.2,5.3,5.8,9.7,10.7,13c4.9,3.3,10.5,4.9,16.8,4.9
		c6.3,0,11.9-1.7,16.8-4.9c4.9-3.3,8.5-7.6,10.7-13c1.5-3.7,2.2-8.2,2.2-13.3v-35.3c0-2.6-0.9-4.9-2.8-6.7
		C896.8,427.1,894.5,426.2,891.9,426.2z"/>
	<path class="st8" d="M945.1,426.2c-9.1,0-16.5,3-21.8,8.8c-5.3,5.8-7.9,13.3-7.9,22.4v35.3c0,2.6,0.9,4.9,2.8,6.7
		c1.8,1.8,4.1,2.8,6.7,2.8c2.6,0,4.9-0.9,6.7-2.8c1.8-1.8,2.8-4.1,2.8-6.7v-37.5c0-3.2,0.9-5.6,2.9-7.4c2-1.8,4.6-2.6,7.9-2.6
		c2.6,0,4.9-0.9,6.7-2.8c1.8-1.8,2.8-4.1,2.8-6.7c0-2.7-0.9-5-2.7-6.8C950.2,427.1,947.9,426.2,945.1,426.2z"/>
	<path class="st8" d="M1001.5,462.6c-4.3-3.6-10.7-6.7-19.2-9.2c-3.9-1.1-4.4-3.2-4.4-4.8c0-1.2,0-4.2,6.7-4.2
		c2.1,0,3.9,0.6,5.4,1.9c1.9,1.6,4.1,2.4,6.6,2.4c2.6,0,4.7-0.9,6.5-2.7c1.7-1.8,2.6-3.9,2.6-6.2c0-2.7-1.1-5.2-3.2-7.3
		c-4.5-4.2-10.5-6.4-17.9-6.4c-7.2,0-13.2,2.1-17.9,6.3c-4.8,4.2-7.2,9.7-7.2,16.1c0,7.6,2.4,13.5,7.3,17.4
		c4.5,3.8,10.7,6.8,18.4,8.9c3.7,1,4.2,2.8,4.2,4.2c0,1.4-0.5,2.4-1.6,3.3c-1.2,1-3,1.5-5.4,1.5c-2.8,0-5.1-0.7-6.8-2.2
		c-1.9-1.6-4.1-2.4-6.6-2.4c-2.6,0-4.7,0.9-6.5,2.7c-1.7,1.8-2.6,3.9-2.6,6.2c0,3.1,1.1,5.6,3.2,7.4c5.1,4.4,11.5,6.6,19.2,6.6
		c7.5,0,13.7-2.1,18.6-6.3c4.9-4.3,7.4-9.7,7.4-16.1C1008.3,472.2,1006,466.4,1001.5,462.6z"/>
</g>
</svg>
