<?xml version="1.0" encoding="utf-8"?>
<!-- Generator: Adobe Illustrator 19.0.0, SVG Export Plug-In . SVG Version: 6.00 Build 0)  -->
<svg version="1.1" id="Layer_1" xmlns="http://www.w3.org/2000/svg" xmlns:xlink="http://www.w3.org/1999/xlink" x="0px" y="0px"
	 viewBox="0 0 200 140" style="enable-background:new 0 0 200 140;" xml:space="preserve">
<style type="text/css">
	.st0{opacity:5.000000e-002;fill:#282C34;enable-background:new    ;}
</style>
<circle id="XMLID_1_" class="st0" cx="38.1" cy="33.8" r="2"/>
<circle id="XMLID_2_" class="st0" cx="48.1" cy="32.8" r="2.5"/>
<circle id="XMLID_3_" class="st0" cx="58.1" cy="31.8" r="3"/>
<circle id="XMLID_4_" class="st0" cx="28.1" cy="34.8" r="1.5"/>
<circle id="XMLID_5_" class="st0" cx="18.1" cy="35.8" r="1"/>
<circle id="XMLID_6_" class="st0" cx="8.1" cy="36.8" r="1.5"/>
<circle id="XMLID_12_" class="st0" cx="98.1" cy="27.8" r="1"/>
<circle id="XMLID_11_" class="st0" cx="108.1" cy="26.8" r="1.5"/>
<circle id="XMLID_10_" class="st0" cx="118.1" cy="25.8" r="2"/>
<circle id="XMLID_9_" class="st0" cx="88.1" cy="28.8" r="1.5"/>
<circle id="XMLID_8_" class="st0" cx="78.1" cy="29.8" r="2"/>
<circle id="XMLID_7_" class="st0" cx="68.1" cy="30.8" r="2.5"/>
<circle id="XMLID_18_" class="st0" cx="158.1" cy="21.8" r="2"/>
<circle id="XMLID_17_" class="st0" cx="168.1" cy="20.8" r="1.5"/>
<circle id="XMLID_16_" class="st0" cx="178.1" cy="19.8" r="1"/>
<circle id="XMLID_15_" class="st0" cx="148.1" cy="22.8" r="2.5"/>
<circle id="XMLID_14_" class="st0" cx="138.1" cy="23.8" r="3"/>
<circle id="XMLID_13_" class="st0" cx="128.1" cy="24.8" r="2.5"/>
<circle id="XMLID_20_" class="st0" cx="188.1" cy="18.8" r="1.5"/>
<circle id="XMLID_19_" class="st0" cx="198.1" cy="17.8" r="2"/>
<circle id="XMLID_40_" class="st0" cx="37.1" cy="23.8" r="1.5"/>
<circle id="XMLID_39_" class="st0" cx="47.1" cy="22.8" r="2"/>
<circle id="XMLID_38_" class="st0" cx="57.1" cy="21.8" r="2.5"/>
<circle id="XMLID_37_" class="st0" cx="27.1" cy="24.8" r="1"/>
<circle id="XMLID_36_" class="st0" cx="17.1" cy="25.8" r="1.5"/>
<circle id="XMLID_35_" class="st0" cx="7.1" cy="26.8" r="2"/>
<circle id="XMLID_34_" class="st0" cx="97.1" cy="17.8" r="1.5"/>
<circle id="XMLID_33_" class="st0" cx="107.1" cy="16.8" r="1"/>
<circle id="XMLID_32_" class="st0" cx="117.1" cy="15.8" r="1.5"/>
<circle id="XMLID_31_" class="st0" cx="87.1" cy="18.8" r="2"/>
<circle id="XMLID_30_" class="st0" cx="77.1" cy="19.8" r="2.5"/>
<circle id="XMLID_29_" class="st0" cx="67.1" cy="20.8" r="3"/>
<circle id="XMLID_28_" class="st0" cx="157.1" cy="11.8" r="2.5"/>
<circle id="XMLID_27_" class="st0" cx="167.1" cy="10.8" r="2"/>
<circle id="XMLID_26_" class="st0" cx="177.1" cy="9.8" r="1.5"/>
<circle id="XMLID_25_" class="st0" cx="147.1" cy="12.8" r="3"/>
<circle id="XMLID_24_" class="st0" cx="137.1" cy="13.8" r="2.5"/>
<circle id="XMLID_23_" class="st0" cx="127.1" cy="14.8" r="2"/>
<circle id="XMLID_22_" class="st0" cx="187.1" cy="8.8" r="1"/>
<circle id="XMLID_21_" class="st0" cx="197.1" cy="7.8" r="1.5"/>
<circle id="XMLID_60_" class="st0" cx="36.1" cy="13.8" r="1"/>
<circle id="XMLID_59_" class="st0" cx="46.1" cy="12.8" r="1.5"/>
<circle id="XMLID_58_" class="st0" cx="56.1" cy="11.8" r="2"/>
<circle id="XMLID_57_" class="st0" cx="26.1" cy="14.8" r="1.5"/>
<circle id="XMLID_56_" class="st0" cx="16.1" cy="15.8" r="2"/>
<circle id="XMLID_55_" class="st0" cx="6.1" cy="16.8" r="2.5"/>
<circle id="XMLID_54_" class="st0" cx="96.1" cy="7.8" r="2"/>
<circle id="XMLID_53_" class="st0" cx="106.1" cy="6.8" r="1.5"/>
<circle id="XMLID_52_" class="st0" cx="116.1" cy="5.8" r="1"/>
<circle id="XMLID_51_" class="st0" cx="86.1" cy="8.8" r="2.5"/>
<circle id="XMLID_50_" class="st0" cx="76.1" cy="9.8" r="3"/>
<circle id="XMLID_49_" class="st0" cx="66.1" cy="10.8" r="2.5"/>
<circle id="XMLID_48_" class="st0" cx="156.1" cy="1.8" r="3"/>
<circle id="XMLID_47_" class="st0" cx="166.1" cy="0.8" r="2.5"/>
<circle id="XMLID_46_" class="st0" cx="176.1" cy="-0.3" r="2"/>
<circle id="XMLID_45_" class="st0" cx="146.1" cy="2.8" r="2.5"/>
<circle id="XMLID_44_" class="st0" cx="136.1" cy="3.8" r="2"/>
<circle id="XMLID_43_" class="st0" cx="126.1" cy="4.8" r="1.5"/>
<circle id="XMLID_42_" class="st0" cx="186.1" cy="-1.3" r="1.5"/>
<circle id="XMLID_41_" class="st0" cx="196.1" cy="-2.3" r="1"/>
<circle id="XMLID_80_" class="st0" cx="35.1" cy="3.8" r="1.5"/>
<circle id="XMLID_79_" class="st0" cx="45.1" cy="2.8" r="1"/>
<circle id="XMLID_78_" class="st0" cx="55.1" cy="1.8" r="1.5"/>
<circle id="XMLID_77_" class="st0" cx="25.1" cy="4.8" r="2"/>
<circle id="XMLID_76_" class="st0" cx="15.1" cy="5.8" r="2.5"/>
<circle id="XMLID_75_" class="st0" cx="5.1" cy="6.8" r="3"/>
<circle id="XMLID_74_" class="st0" cx="95.1" cy="-2.3" r="2.5"/>
<circle id="XMLID_71_" class="st0" cx="85.1" cy="-1.3" r="3"/>
<circle id="XMLID_70_" class="st0" cx="75.1" cy="-0.3" r="2.5"/>
<circle id="XMLID_69_" class="st0" cx="65.1" cy="0.8" r="2"/>
<circle id="XMLID_160_" class="st0" cx="42.1" cy="73.8" r="2"/>
<circle id="XMLID_159_" class="st0" cx="52.1" cy="72.8" r="1.5"/>
<circle id="XMLID_158_" class="st0" cx="62.1" cy="71.8" r="1"/>
<circle id="XMLID_157_" class="st0" cx="32.1" cy="74.8" r="2.5"/>
<circle id="XMLID_156_" class="st0" cx="22.1" cy="75.8" r="3"/>
<circle id="XMLID_155_" class="st0" cx="12.1" cy="76.8" r="2.5"/>
<circle id="XMLID_154_" class="st0" cx="102.1" cy="67.8" r="3"/>
<circle id="XMLID_153_" class="st0" cx="112.1" cy="66.8" r="2.5"/>
<circle id="XMLID_152_" class="st0" cx="122.1" cy="65.8" r="2"/>
<circle id="XMLID_151_" class="st0" cx="92.1" cy="68.8" r="2.5"/>
<circle id="XMLID_150_" class="st0" cx="82.1" cy="69.8" r="2"/>
<circle id="XMLID_149_" class="st0" cx="72.1" cy="70.8" r="1.5"/>
<circle id="XMLID_148_" class="st0" cx="162.1" cy="61.8" r="2"/>
<circle id="XMLID_147_" class="st0" cx="172.1" cy="60.8" r="2.5"/>
<circle id="XMLID_146_" class="st0" cx="182.1" cy="59.8" r="3"/>
<circle id="XMLID_145_" class="st0" cx="152.1" cy="62.8" r="1.5"/>
<circle id="XMLID_144_" class="st0" cx="142.1" cy="63.8" r="1"/>
<circle id="XMLID_143_" class="st0" cx="132.1" cy="64.8" r="1.5"/>
<circle id="XMLID_142_" class="st0" cx="192.1" cy="58.8" r="2.5"/>
<circle id="XMLID_141_" class="st0" cx="202.1" cy="57.8" r="2"/>
<circle id="XMLID_140_" class="st0" cx="41.1" cy="63.8" r="2.5"/>
<circle id="XMLID_139_" class="st0" cx="51.1" cy="62.8" r="2"/>
<circle id="XMLID_138_" class="st0" cx="61.1" cy="61.8" r="1.5"/>
<circle id="XMLID_137_" class="st0" cx="31.1" cy="64.8" r="3"/>
<circle id="XMLID_136_" class="st0" cx="21.1" cy="65.8" r="2.5"/>
<circle id="XMLID_135_" class="st0" cx="11.1" cy="66.8" r="2"/>
<circle id="XMLID_134_" class="st0" cx="101.1" cy="57.8" r="2.5"/>
<circle id="XMLID_133_" class="st0" cx="111.1" cy="56.8" r="3"/>
<circle id="XMLID_132_" class="st0" cx="121.1" cy="55.8" r="2.5"/>
<circle id="XMLID_131_" class="st0" cx="91.1" cy="58.8" r="2"/>
<circle id="XMLID_130_" class="st0" cx="81.1" cy="59.8" r="1.5"/>
<circle id="XMLID_129_" class="st0" cx="71.1" cy="60.8" r="1"/>
<circle id="XMLID_128_" class="st0" cx="161.1" cy="51.8" r="1.5"/>
<circle id="XMLID_127_" class="st0" cx="171.1" cy="50.8" r="2"/>
<circle id="XMLID_126_" class="st0" cx="181.1" cy="49.8" r="2.5"/>
<circle id="XMLID_125_" class="st0" cx="151.1" cy="52.8" r="1"/>
<circle id="XMLID_124_" class="st0" cx="141.1" cy="53.8" r="1.5"/>
<circle id="XMLID_123_" class="st0" cx="131.1" cy="54.8" r="2"/>
<circle id="XMLID_122_" class="st0" cx="191.1" cy="48.8" r="3"/>
<circle id="XMLID_121_" class="st0" cx="201.1" cy="47.8" r="2.5"/>
<circle id="XMLID_120_" class="st0" cx="40.1" cy="53.8" r="3"/>
<circle id="XMLID_119_" class="st0" cx="50.1" cy="52.8" r="2.5"/>
<circle id="XMLID_118_" class="st0" cx="60.1" cy="51.8" r="2"/>
<circle id="XMLID_117_" class="st0" cx="30.1" cy="54.8" r="2.5"/>
<circle id="XMLID_116_" class="st0" cx="20.1" cy="55.8" r="2"/>
<circle id="XMLID_115_" class="st0" cx="10.1" cy="56.8" r="1.5"/>
<circle id="XMLID_114_" class="st0" cx="100.1" cy="47.8" r="2"/>
<circle id="XMLID_113_" class="st0" cx="110.1" cy="46.8" r="2.5"/>
<circle id="XMLID_112_" class="st0" cx="120.1" cy="45.8" r="3"/>
<circle id="XMLID_111_" class="st0" cx="90.1" cy="48.8" r="1.5"/>
<circle id="XMLID_110_" class="st0" cx="80.1" cy="49.8" r="1"/>
<circle id="XMLID_109_" class="st0" cx="70.1" cy="50.8" r="1.5"/>
<circle id="XMLID_108_" class="st0" cx="160.1" cy="41.8" r="1"/>
<circle id="XMLID_107_" class="st0" cx="170.1" cy="40.8" r="1.5"/>
<circle id="XMLID_106_" class="st0" cx="180.1" cy="39.8" r="2"/>
<circle id="XMLID_105_" class="st0" cx="150.1" cy="42.8" r="1.5"/>
<circle id="XMLID_104_" class="st0" cx="140.1" cy="43.8" r="2"/>
<circle id="XMLID_103_" class="st0" cx="130.1" cy="44.8" r="2.5"/>
<circle id="XMLID_102_" class="st0" cx="190.1" cy="38.8" r="2.5"/>
<circle id="XMLID_101_" class="st0" cx="200.1" cy="37.8" r="3"/>
<circle id="XMLID_100_" class="st0" cx="39.1" cy="43.8" r="2.5"/>
<circle id="XMLID_99_" class="st0" cx="49.1" cy="42.8" r="3"/>
<circle id="XMLID_98_" class="st0" cx="59.1" cy="41.8" r="2.5"/>
<circle id="XMLID_97_" class="st0" cx="29.1" cy="44.8" r="2"/>
<circle id="XMLID_96_" class="st0" cx="19.1" cy="45.8" r="1.5"/>
<circle id="XMLID_95_" class="st0" cx="9.1" cy="46.8" r="1"/>
<circle id="XMLID_94_" class="st0" cx="99.1" cy="37.8" r="1.5"/>
<circle id="XMLID_93_" class="st0" cx="109.1" cy="36.8" r="2"/>
<circle id="XMLID_92_" class="st0" cx="119.1" cy="35.8" r="2.5"/>
<circle id="XMLID_91_" class="st0" cx="89.1" cy="38.8" r="1"/>
<circle id="XMLID_90_" class="st0" cx="79.1" cy="39.8" r="1.5"/>
<circle id="XMLID_89_" class="st0" cx="69.1" cy="40.8" r="2"/>
<circle id="XMLID_88_" class="st0" cx="159.1" cy="31.8" r="1.5"/>
<circle id="XMLID_87_" class="st0" cx="169.1" cy="30.8" r="1"/>
<circle id="XMLID_86_" class="st0" cx="179.1" cy="29.8" r="1.5"/>
<circle id="XMLID_85_" class="st0" cx="149.1" cy="32.8" r="2"/>
<circle id="XMLID_84_" class="st0" cx="139.1" cy="33.8" r="2.5"/>
<circle id="XMLID_83_" class="st0" cx="129.1" cy="34.8" r="3"/>
<circle id="XMLID_82_" class="st0" cx="189.1" cy="28.8" r="2"/>
<circle id="XMLID_81_" class="st0" cx="199.1" cy="27.8" r="2.5"/>
<circle id="XMLID_240_" class="st0" cx="46.1" cy="113.8" r="2"/>
<circle id="XMLID_239_" class="st0" cx="56.1" cy="112.8" r="2.5"/>
<circle id="XMLID_238_" class="st0" cx="66.1" cy="111.8" r="3"/>
<circle id="XMLID_237_" class="st0" cx="36.1" cy="114.8" r="1.5"/>
<circle id="XMLID_236_" class="st0" cx="26.1" cy="115.8" r="1"/>
<circle id="XMLID_235_" class="st0" cx="16.1" cy="116.8" r="1.5"/>
<circle id="XMLID_234_" class="st0" cx="106.1" cy="107.8" r="1"/>
<circle id="XMLID_233_" class="st0" cx="116.1" cy="106.8" r="1.5"/>
<circle id="XMLID_232_" class="st0" cx="126.1" cy="105.8" r="2"/>
<circle id="XMLID_231_" class="st0" cx="96.1" cy="108.8" r="1.5"/>
<circle id="XMLID_230_" class="st0" cx="86.1" cy="109.8" r="2"/>
<circle id="XMLID_229_" class="st0" cx="76.1" cy="110.8" r="2.5"/>
<circle id="XMLID_228_" class="st0" cx="166.1" cy="101.8" r="2"/>
<circle id="XMLID_227_" class="st0" cx="176.1" cy="100.8" r="1.5"/>
<circle id="XMLID_226_" class="st0" cx="186.1" cy="99.8" r="1"/>
<circle id="XMLID_225_" class="st0" cx="156.1" cy="102.8" r="2.5"/>
<circle id="XMLID_224_" class="st0" cx="146.1" cy="103.8" r="3"/>
<circle id="XMLID_223_" class="st0" cx="136.1" cy="104.8" r="2.5"/>
<circle id="XMLID_222_" class="st0" cx="196.1" cy="98.8" r="1.5"/>
<circle id="XMLID_220_" class="st0" cx="45.1" cy="103.8" r="1.5"/>
<circle id="XMLID_219_" class="st0" cx="55.1" cy="102.8" r="2"/>
<circle id="XMLID_218_" class="st0" cx="65.1" cy="101.8" r="2.5"/>
<circle id="XMLID_217_" class="st0" cx="35.1" cy="104.8" r="1"/>
<circle id="XMLID_216_" class="st0" cx="25.1" cy="105.8" r="1.5"/>
<circle id="XMLID_215_" class="st0" cx="15.1" cy="106.8" r="2"/>
<circle id="XMLID_214_" class="st0" cx="105.1" cy="97.8" r="1.5"/>
<circle id="XMLID_213_" class="st0" cx="115.1" cy="96.8" r="1"/>
<circle id="XMLID_212_" class="st0" cx="125.1" cy="95.8" r="1.5"/>
<circle id="XMLID_211_" class="st0" cx="95.1" cy="98.8" r="2"/>
<circle id="XMLID_210_" class="st0" cx="85.1" cy="99.8" r="2.5"/>
<circle id="XMLID_209_" class="st0" cx="75.1" cy="100.8" r="3"/>
<circle id="XMLID_208_" class="st0" cx="165.1" cy="91.8" r="2.5"/>
<circle id="XMLID_207_" class="st0" cx="175.1" cy="90.8" r="2"/>
<circle id="XMLID_206_" class="st0" cx="185.1" cy="89.8" r="1.5"/>
<circle id="XMLID_205_" class="st0" cx="155.1" cy="92.8" r="3"/>
<circle id="XMLID_204_" class="st0" cx="145.1" cy="93.8" r="2.5"/>
<circle id="XMLID_203_" class="st0" cx="135.1" cy="94.8" r="2"/>
<circle id="XMLID_202_" class="st0" cx="195.1" cy="88.8" r="1"/>
<circle id="XMLID_200_" class="st0" cx="44.1" cy="93.8" r="1"/>
<circle id="XMLID_199_" class="st0" cx="54.1" cy="92.8" r="1.5"/>
<circle id="XMLID_198_" class="st0" cx="64.1" cy="91.8" r="2"/>
<circle id="XMLID_197_" class="st0" cx="34.1" cy="94.8" r="1.5"/>
<circle id="XMLID_196_" class="st0" cx="24.1" cy="95.8" r="2"/>
<circle id="XMLID_195_" class="st0" cx="14.1" cy="96.8" r="2.5"/>
<circle id="XMLID_194_" class="st0" cx="104.1" cy="87.8" r="2"/>
<circle id="XMLID_193_" class="st0" cx="114.1" cy="86.8" r="1.5"/>
<circle id="XMLID_192_" class="st0" cx="124.1" cy="85.8" r="1"/>
<circle id="XMLID_191_" class="st0" cx="94.1" cy="88.8" r="2.5"/>
<circle id="XMLID_190_" class="st0" cx="84.1" cy="89.8" r="3"/>
<circle id="XMLID_189_" class="st0" cx="74.1" cy="90.8" r="2.5"/>
<circle id="XMLID_188_" class="st0" cx="164.1" cy="81.8" r="3"/>
<circle id="XMLID_187_" class="st0" cx="174.1" cy="80.8" r="2.5"/>
<circle id="XMLID_186_" class="st0" cx="184.1" cy="79.8" r="2"/>
<circle id="XMLID_185_" class="st0" cx="154.1" cy="82.8" r="2.5"/>
<circle id="XMLID_184_" class="st0" cx="144.1" cy="83.8" r="2"/>
<circle id="XMLID_183_" class="st0" cx="134.1" cy="84.8" r="1.5"/>
<circle id="XMLID_182_" class="st0" cx="194.1" cy="78.8" r="1.5"/>
<circle id="XMLID_180_" class="st0" cx="43.1" cy="83.8" r="1.5"/>
<circle id="XMLID_179_" class="st0" cx="53.1" cy="82.8" r="1"/>
<circle id="XMLID_178_" class="st0" cx="63.1" cy="81.8" r="1.5"/>
<circle id="XMLID_177_" class="st0" cx="33.1" cy="84.8" r="2"/>
<circle id="XMLID_176_" class="st0" cx="23.1" cy="85.8" r="2.5"/>
<circle id="XMLID_175_" class="st0" cx="13.1" cy="86.8" r="3"/>
<circle id="XMLID_174_" class="st0" cx="103.1" cy="77.8" r="2.5"/>
<circle id="XMLID_173_" class="st0" cx="113.1" cy="76.8" r="2"/>
<circle id="XMLID_172_" class="st0" cx="123.1" cy="75.8" r="1.5"/>
<circle id="XMLID_171_" class="st0" cx="93.1" cy="78.8" r="3"/>
<circle id="XMLID_170_" class="st0" cx="83.1" cy="79.8" r="2.5"/>
<circle id="XMLID_169_" class="st0" cx="73.1" cy="80.8" r="2"/>
<circle id="XMLID_168_" class="st0" cx="163.1" cy="71.8" r="2.5"/>
<circle id="XMLID_167_" class="st0" cx="173.1" cy="70.8" r="3"/>
<circle id="XMLID_166_" class="st0" cx="183.1" cy="69.8" r="2.5"/>
<circle id="XMLID_165_" class="st0" cx="153.1" cy="72.8" r="2"/>
<circle id="XMLID_164_" class="st0" cx="143.1" cy="73.8" r="1.5"/>
<circle id="XMLID_163_" class="st0" cx="133.1" cy="74.8" r="1"/>
<circle id="XMLID_162_" class="st0" cx="193.1" cy="68.8" r="2"/>
<circle id="XMLID_161_" class="st0" cx="203.1" cy="67.8" r="1.5"/>
<circle id="XMLID_280_" class="st0" cx="48.1" cy="133.8" r="3"/>
<circle id="XMLID_279_" class="st0" cx="58.1" cy="132.8" r="2.5"/>
<circle id="XMLID_278_" class="st0" cx="68.1" cy="131.8" r="2"/>
<circle id="XMLID_277_" class="st0" cx="38.1" cy="134.8" r="2.5"/>
<circle id="XMLID_276_" class="st0" cx="28.1" cy="135.8" r="2"/>
<circle id="XMLID_275_" class="st0" cx="18.1" cy="136.8" r="1.5"/>
<circle id="XMLID_274_" class="st0" cx="108.1" cy="127.8" r="2"/>
<circle id="XMLID_273_" class="st0" cx="118.1" cy="126.8" r="2.5"/>
<circle id="XMLID_272_" class="st0" cx="128.1" cy="125.8" r="3"/>
<circle id="XMLID_271_" class="st0" cx="98.1" cy="128.8" r="1.5"/>
<circle id="XMLID_270_" class="st0" cx="88.1" cy="129.8" r="1"/>
<circle id="XMLID_269_" class="st0" cx="78.1" cy="130.8" r="1.5"/>
<circle id="XMLID_268_" class="st0" cx="168.1" cy="121.8" r="1"/>
<circle id="XMLID_267_" class="st0" cx="178.1" cy="120.8" r="1.5"/>
<circle id="XMLID_266_" class="st0" cx="188.1" cy="119.8" r="2"/>
<circle id="XMLID_265_" class="st0" cx="158.1" cy="122.8" r="1.5"/>
<circle id="XMLID_264_" class="st0" cx="148.1" cy="123.8" r="2"/>
<circle id="XMLID_263_" class="st0" cx="138.1" cy="124.8" r="2.5"/>
<circle id="XMLID_262_" class="st0" cx="198.1" cy="118.8" r="2.5"/>
<circle id="XMLID_260_" class="st0" cx="47.1" cy="123.8" r="2.5"/>
<circle id="XMLID_259_" class="st0" cx="57.1" cy="122.8" r="3"/>
<circle id="XMLID_258_" class="st0" cx="67.1" cy="121.8" r="2.5"/>
<circle id="XMLID_257_" class="st0" cx="37.1" cy="124.8" r="2"/>
<circle id="XMLID_256_" class="st0" cx="27.1" cy="125.8" r="1.5"/>
<circle id="XMLID_255_" class="st0" cx="17.1" cy="126.8" r="1"/>
<circle id="XMLID_254_" class="st0" cx="107.1" cy="117.8" r="1.5"/>
<circle id="XMLID_253_" class="st0" cx="117.1" cy="116.8" r="2"/>
<circle id="XMLID_252_" class="st0" cx="127.1" cy="115.8" r="2.5"/>
<circle id="XMLID_251_" class="st0" cx="97.1" cy="118.8" r="1"/>
<circle id="XMLID_250_" class="st0" cx="87.1" cy="119.8" r="1.5"/>
<circle id="XMLID_249_" class="st0" cx="77.1" cy="120.8" r="2"/>
<circle id="XMLID_248_" class="st0" cx="167.1" cy="111.8" r="1.5"/>
<circle id="XMLID_247_" class="st0" cx="177.1" cy="110.8" r="1"/>
<circle id="XMLID_246_" class="st0" cx="187.1" cy="109.8" r="1.5"/>
<circle id="XMLID_245_" class="st0" cx="157.1" cy="112.8" r="2"/>
<circle id="XMLID_244_" class="st0" cx="147.1" cy="113.8" r="2.5"/>
<circle id="XMLID_243_" class="st0" cx="137.1" cy="114.8" r="3"/>
<circle id="XMLID_242_" class="st0" cx="197.1" cy="108.8" r="2"/>
<circle id="XMLID_428_" class="st0" cx="170.1" cy="141.8" r="2"/>
<circle id="XMLID_427_" class="st0" cx="180.1" cy="140.8" r="2.5"/>
<circle id="XMLID_426_" class="st0" cx="190.1" cy="139.8" r="3"/>
<circle id="XMLID_425_" class="st0" cx="160.1" cy="142.8" r="1.5"/>
<circle id="XMLID_422_" class="st0" cx="200.1" cy="138.8" r="2.5"/>
<circle id="XMLID_419_" class="st0" cx="59.1" cy="142.8" r="2"/>
<circle id="XMLID_418_" class="st0" cx="69.1" cy="141.8" r="1.5"/>
<circle id="XMLID_414_" class="st0" cx="109.1" cy="137.8" r="2.5"/>
<circle id="XMLID_413_" class="st0" cx="119.1" cy="136.8" r="3"/>
<circle id="XMLID_412_" class="st0" cx="129.1" cy="135.8" r="2.5"/>
<circle id="XMLID_411_" class="st0" cx="99.1" cy="138.8" r="2"/>
<circle id="XMLID_410_" class="st0" cx="89.1" cy="139.8" r="1.5"/>
<circle id="XMLID_409_" class="st0" cx="79.1" cy="140.8" r="1"/>
<circle id="XMLID_408_" class="st0" cx="169.1" cy="131.8" r="1.5"/>
<circle id="XMLID_407_" class="st0" cx="179.1" cy="130.8" r="2"/>
<circle id="XMLID_406_" class="st0" cx="189.1" cy="129.8" r="2.5"/>
<circle id="XMLID_405_" class="st0" cx="159.1" cy="132.8" r="1"/>
<circle id="XMLID_404_" class="st0" cx="149.1" cy="133.8" r="1.5"/>
<circle id="XMLID_403_" class="st0" cx="139.1" cy="134.8" r="2"/>
<circle id="XMLID_402_" class="st0" cx="199.1" cy="128.8" r="3"/>
<circle id="XMLID_702_" class="st0" cx="-1.9" cy="37.8" r="2"/>
<circle id="XMLID_678_" class="st0" cx="2.1" cy="77.8" r="2"/>
<circle id="XMLID_672_" class="st0" cx="1.1" cy="67.8" r="1.5"/>
<circle id="XMLID_666_" class="st0" cx="0.1" cy="57.8" r="1"/>
<circle id="XMLID_660_" class="st0" cx="-0.9" cy="47.8" r="1.5"/>
<circle id="XMLID_654_" class="st0" cx="6.1" cy="117.8" r="2"/>
<circle id="XMLID_648_" class="st0" cx="5.1" cy="107.8" r="2.5"/>
<circle id="XMLID_642_" class="st0" cx="4.1" cy="97.8" r="3"/>
<circle id="XMLID_636_" class="st0" cx="3.1" cy="87.8" r="2.5"/>
<circle id="XMLID_631_" class="st0" cx="-1.9" cy="138.8" r="1.5"/>
<circle id="XMLID_630_" class="st0" cx="8.1" cy="137.8" r="1"/>
<circle id="XMLID_624_" class="st0" cx="7.1" cy="127.8" r="1.5"/>
</svg>
