<?xml version="1.0" encoding="utf-8"?>
<!-- Generator: Adobe Illustrator 19.0.0, SVG Export Plug-In . SVG Version: 6.00 Build 0)  -->
<svg version="1.1" id="Layer_1" xmlns="http://www.w3.org/2000/svg" xmlns:xlink="http://www.w3.org/1999/xlink" x="0px" y="0px"
	 width="110px" height="110px" viewBox="-401 304.2 110 110" style="enable-background:new -401 304.2 110 110;"
	 xml:space="preserve">
<style type="text/css">
	.st0{fill:#635BFF;}
</style>
<path class="st0" d="M-303,304.2h-86c-6.6,0-12,5.4-12,12v86c0,6.6,5.4,12,12,12h86c6.6,0,12-5.4,12-12v-86
	C-291,309.6-296.4,304.2-303,304.2z M-348.8,397.5c-7.2,0-15.1-1.4-22.9-4.8v-20c7.1,3.9,16,6.7,22.9,6.7c4.7,0,8.1-1.3,8.1-5.1
	c0-10-31.9-6.3-31.9-29.5c0-14.9,11.3-23.8,28.4-23.8c7,0,13.9,1.1,20.8,3.9v19.8c-6.4-3.4-14.5-5.4-20.8-5.4
	c-4.5,0-7.1,1.3-7.1,4.5c0,9.4,32,5,32.1,30C-319.3,388.8-331.3,397.5-348.8,397.5z"/>
</svg>
