<?xml version="1.0" encoding="utf-8"?>
<!-- Generator: Adobe Illustrator 19.0.0, SVG Export Plug-In . SVG Version: 6.00 Build 0)  -->
<svg version="1.1" id="Layer_1" xmlns="http://www.w3.org/2000/svg" xmlns:xlink="http://www.w3.org/1999/xlink" x="0px" y="0px"
	 width="258px" height="258px" viewBox="-80 -57 258 258" style="enable-background:new -80 -57 258 258;" xml:space="preserve">
<style type="text/css">
	.st0{fill:#00684A;}
</style>
<path class="st0" d="M72-28.2C61.1-41.1,51.8-54.1,49.9-56.8c-0.2-0.2-0.5-0.2-0.7,0C47.2-54.1,37.9-41.1,27-28.2
	C-66.4,90.3,41.7,170.3,41.7,170.3l0.9,0.6c0.8,12.3,2.8,30.1,2.8,30.1h4h4c0,0,2-17.7,2.8-30.1l0.9-0.7
	C57.3,170.2,165.4,90.3,72-28.2z M49.5,168.5c0,0-4.8-4.1-6.1-6.2v-0.2L49.1,33c0-0.4,0.6-0.4,0.6,0l5.8,129.1v0.2
	C54.3,164.4,49.5,168.5,49.5,168.5z"/>
</svg>
