<?xml version="1.0" encoding="utf-8"?>
<!-- Generator: Adobe Illustrator 19.0.0, SVG Export Plug-In . SVG Version: 6.00 Build 0)  -->
<svg version="1.1" id="Layer_1" xmlns="http://www.w3.org/2000/svg" xmlns:xlink="http://www.w3.org/1999/xlink" x="0px" y="0px"
	 width="79px" height="79px" viewBox="-46.5 33 79 79" style="enable-background:new -46.5 33 79 79;" xml:space="preserve">
<style type="text/css">
	.st0{clip-path:url(#SVGID_2_);}
	.st1{fill:url(#SVGID_3_);}
	.st2{fill:#0D0F14;}
</style>
<g>
	<defs>
		<rect id="SVGID_1_" x="-39" y="33" width="64" height="79"/>
	</defs>
	<clipPath id="SVGID_2_">
		<use xlink:href="#SVGID_1_"  style="overflow:visible;"/>
	</clipPath>
	<g class="st0">
		
			<linearGradient id="SVGID_3_" gradientUnits="userSpaceOnUse" x1="-26.8473" y1="42.3212" x2="10.3942" y2="60.152" gradientTransform="matrix(1 0 0 -1 0 146)">
			<stop  offset="0" style="stop-color:#D83333"/>
			<stop  offset="1" style="stop-color:#F041FF"/>
		</linearGradient>
		<path class="st1" d="M-19,98.9c-3.9-3.5-5-10.8-3.4-16.2c2.8,3.4,6.7,4.4,10.7,5c6.2,0.9,12.3,0.6,18.1-2.2c0.7-0.3,1.3-0.7,2-1.2
			c0.5,1.5,0.7,3.1,0.5,4.7C8.4,93,6.4,96,3.3,98.2c-1.2,0.9-2.6,1.7-3.8,2.6c-3.9,2.6-5,5.7-3.5,10.2c0,0.1,0.1,0.2,0.1,0.5
			c-2-0.9-3.5-2.2-4.6-3.9c-1.2-1.8-1.7-3.8-1.8-5.9c0-1,0-2.1-0.2-3.1c-0.3-2.5-1.5-3.6-3.8-3.7c-2.3-0.1-4.1,1.3-4.6,3.6
			C-18.9,98.6-19,98.7-19,98.9L-19,98.9z"/>
		<path class="st2" d="M-38.5,84.4c0,0,10.6-5.1,21.2-5.1l8-24.7c0.3-1.2,1.2-2,2.2-2c1,0,1.9,0.8,2.2,2l8,24.7
			c12.6,0,21.2,5.1,21.2,5.1s-18-48.9-18-49C5.8,33.9,4.9,33,3.7,33h-21.6c-1.2,0-2,0.9-2.6,2.4C-20.5,35.5-38.5,84.4-38.5,84.4z"/>
	</g>
</g>
</svg>
