<?xml version="1.0" encoding="utf-8"?>
<!-- Generator: Adobe Illustrator 19.0.0, SVG Export Plug-In . SVG Version: 6.00 Build 0)  -->
<svg version="1.1" id="Layer_1" xmlns="http://www.w3.org/2000/svg" xmlns:xlink="http://www.w3.org/1999/xlink" x="0px" y="0px"
	 width="110px" height="110px" viewBox="-401 304.2 110 110" style="enable-background:new -401 304.2 110 110;"
	 xml:space="preserve">
<style type="text/css">
	.st0{fill:none;}
	.st1{fill:#35495E;}
	.st2{fill:#41B883;}
</style>
<g transform="matrix(.85771 0 0 .85771 9.1059 -7.6628)">
	<path class="st0" d="M-478,372.7l49.9,0.2l14.2,24.5l14.4-24.5l49.5-0.2l-63.8,110.1L-478,372.7z M-351,373.3l-24.4,0l-38.5,66.1
		l-38.5-66.1l-24.7,0l63.2,107.9L-351,373.3z M-376.2,373.3l-22.7,0.2l-15.1,24.6l-14.8-24.6l-22.8-0.2l37.7,64.5L-376.2,373.3z
		 M-452,373.2l23,0l15,25l15-25l23,0l-37.8,65.7"/>
	<path class="st1" d="M-452,373.2l23,0l15,25l15-25l23,0l-37.8,65.7L-452,373.2z"/>
	<path class="st2" d="M-477.1,373.3l25.1-0.2l38.2,65.7l37.9-65.7l25.1,0l-63,108.1L-477.1,373.3z"/>
</g>
</svg>
