<?xml version="1.0" encoding="utf-8"?>
<!-- Generator: Adobe Illustrator 19.0.0, SVG Export Plug-In . SVG Version: 6.00 Build 0)  -->
<svg version="1.1" id="Layer_1" xmlns="http://www.w3.org/2000/svg" xmlns:xlink="http://www.w3.org/1999/xlink" x="0px" y="0px"
	 width="31px" height="31px" viewBox="2 57 31 31" style="enable-background:new 2 57 31 31;" xml:space="preserve">
<path d="M27.5,68c3,0,5.5-2.5,5.5-5.5S30.5,57,27.5,57c-3,0-5.5,2.5-5.5,5.5S24.5,68,27.5,68z M16.8,58L16.8,58
	c-2.3,0-4.1,0-5.5,0.1c-1.4,0.1-2.6,0.4-3.6,0.9c-1.7,0.9-3.1,2.3-4,4c-0.5,1-0.8,2.2-0.9,3.6C2.7,68,2.7,69.8,2.7,72v0v1.1v0
	c0,2.3,0,4,0.1,5.4c0.1,1.4,0.4,2.6,0.9,3.6c0.9,1.7,2.3,3.1,4,4c1,0.5,2.2,0.8,3.6,0.9c1.4,0.1,3.2,0.1,5.4,0.1l0,0h0h1.1h0l0,0
	c2.3,0,4,0,5.4-0.1c1.4-0.1,2.6-0.4,3.6-0.9c1.7-0.9,3.1-2.3,4-4c0.5-1,0.8-2.2,0.9-3.6c0.1-1.4,0.1-3.2,0.1-5.4v0v0v-0.5
	c0-0.5-0.4-1-1-1c-0.5,0-1,0.4-1,1v0.5c0,2.3,0,4-0.1,5.3c-0.1,1.3-0.3,2.2-0.7,2.9c-0.7,1.4-1.8,2.5-3.2,3.2
	c-0.7,0.4-1.6,0.6-2.9,0.7c-1.3,0.1-3,0.1-5.3,0.1h-1.1c-2.3,0-4,0-5.3-0.1c-1.3-0.1-2.2-0.3-2.9-0.7c-1.4-0.7-2.5-1.8-3.2-3.2
	c-0.4-0.7-0.6-1.6-0.7-2.9c-0.1-1.3-0.1-3-0.1-5.3v-1.1c0-2.3,0-4,0.1-5.3c0.1-1.3,0.3-2.2,0.7-2.9c0.7-1.4,1.8-2.5,3.2-3.2
	c0.7-0.4,1.6-0.6,2.9-0.7c1.3-0.1,3-0.1,5.3-0.1h0.5c0.5,0,1-0.4,1-1c0-0.5-0.4-1-1-1H16.8z"/>
</svg>
