<?xml version="1.0" encoding="utf-8"?>
<!-- Generator: Adobe Illustrator 19.0.0, SVG Export Plug-In . SVG Version: 6.00 Build 0)  -->
<svg version="1.1" id="Layer_1" xmlns="http://www.w3.org/2000/svg" xmlns:xlink="http://www.w3.org/1999/xlink" x="0px" y="0px"
	 width="128px" height="128px" viewBox="0 0 128 128" style="enable-background:new 0 0 128 128;" xml:space="preserve">
<style type="text/css">
	.st0{fill:url(#XMLID_83_);}
	.st1{fill:url(#XMLID_84_);}
	.st2{fill:url(#XMLID_85_);}
</style>
<linearGradient id="XMLID_83_" gradientUnits="userSpaceOnUse" x1="84.4219" y1="251.5309" x2="38.9246" y2="159.2906" gradientTransform="matrix(1 0 0 -1 0 274)">
	<stop  offset="0" style="stop-color:#3F873F"/>
	<stop  offset="0.3296" style="stop-color:#3F8B3D"/>
	<stop  offset="0.6367" style="stop-color:#3E9638"/>
	<stop  offset="0.9341" style="stop-color:#3DA92E"/>
	<stop  offset="1" style="stop-color:#3DAE2B"/>
</linearGradient>
<path id="XMLID_30_" class="st0" d="M67,0.8c-1.9-1.1-4.1-1.1-6,0L11.1,29.8c-1.9,1.1-3,3.1-3,5.2v58c0,2.1,1.2,4.2,3,5.2l49.8,28.9
	c1.9,1.1,4.1,1.1,6,0l49.8-28.9c1.9-1.1,3-3.1,3-5.2V35c0-2.1-1.2-4.2-3-5.2L67,0.8z"/>
<linearGradient id="XMLID_84_" gradientUnits="userSpaceOnUse" x1="56.3098" y1="203.3168" x2="183.2554" y2="296.5312" gradientTransform="matrix(1 0 0 -1 0 274)">
	<stop  offset="0.1376" style="stop-color:#3F873F"/>
	<stop  offset="0.4016" style="stop-color:#52A044"/>
	<stop  offset="0.7129" style="stop-color:#64B749"/>
	<stop  offset="0.9081" style="stop-color:#6ABF4B"/>
</linearGradient>
<path id="XMLID_29_" class="st1" d="M116.9,29.8L66.8,0.8c-0.5-0.2-1.1-0.5-1.5-0.6L9.2,96.8c0.5,0.6,1.1,1.1,1.7,1.4l50.1,28.9
	c1.4,0.8,3.1,1.1,4.6,0.6l52.7-96.9C117.8,30.4,117.4,30,116.9,29.8z"/>
<linearGradient id="XMLID_85_" gradientUnits="userSpaceOnUse" x1="6.3187" y1="210.0033" x2="121.5996" y2="210.0033" gradientTransform="matrix(1 0 0 -1 0 274)">
	<stop  offset="9.191650e-002" style="stop-color:#6ABF4B"/>
	<stop  offset="0.2871" style="stop-color:#64B749"/>
	<stop  offset="0.5984" style="stop-color:#52A044"/>
	<stop  offset="0.8624" style="stop-color:#3F873F"/>
</linearGradient>
<path id="XMLID_28_" class="st2" d="M116.9,98.2c1.4-0.8,2.5-2.3,3-3.8L65.1,0.1c-1.4-0.2-3-0.1-4.3,0.7L11.1,29.6L64.7,128
	c0.7-0.1,1.5-0.4,2.2-0.7L116.9,98.2z"/>
</svg>
